<svg xmlns="http://www.w3.org/2000/svg" width="64" height="64" fill="none" id="pie-chart"><path fill="#2B3151" fill-rule="evenodd" d="M28 16c0-.788-.608-1.247-1.16-1.177A20 20 0 1 0 49.177 37.16c.07-.552-.389-1.16-1.177-1.16H34a6 6 0 0 1-6-6V16Zm-1.493-3.823c2.37-.298 4.16 1.666 4.16 3.823v14A3.333 3.333 0 0 0 34 33.334h14c2.157 0 4.121 1.789 3.823 4.159a22.667 22.667 0 1 1-25.316-25.316Z" clip-rule="evenodd"></path><path fill="#445CDA" fill-rule="evenodd" d="M33.334 12c0-2.86 2.394-5.536 5.558-4.936a22.667 22.667 0 0 1 18.044 18.044c.6 3.164-2.075 5.559-4.936 5.559H38.667a5.333 5.333 0 0 1-5.334-5.334V12Zm5.061-2.316C37.218 9.461 36 10.442 36 12v13.334A2.667 2.667 0 0 0 38.667 28H52c1.558 0 2.54-1.218 2.316-2.395a20 20 0 0 0-15.92-15.921Z" clip-rule="evenodd"></path></svg>